# xmcd
#
# Track frame offsets:
#	150
#	16522
#	26292
#	39986
#	63527
#	67436
#	87346
#	98898
#	117554
#	130104
#	146982
#	154471
#	177206
#
# Disc length: 2808 seconds
#
# Revision: 0
# Processed by: cddbd v1.5.1PL0 Copyright (c) Steve Scherf et al.
# Submitted via: dBpowerAMP V4.0
#
DISCID=b60af60d
DTITLE=Santa Cruz - After supper
DYEAR=2005
DGENRE=Alternative
TTITLE0=Sad ugly boy (part 1)
TTITLE1=The wrath of God
TTITLE2=Clank of gear
TTITLE3=Broken arrow
TTITLE4=Sad ugly boy (part 4)
TTITLE5=The Abel and the Cain
TTITLE6=Baby baboons
TTITLE7=Flowers for my friend
TTITLE8=After supper
TTITLE9=Dead for sleep
TTITLE10=Sad ugly boy (part 2)
TTITLE11=All trace fades
TTITLE12=Falling at least
EXTD=
EXTT0=
EXTT1=
EXTT2=
EXTT3=
EXTT4=
EXTT5=
EXTT6=
EXTT7=
EXTT8=
EXTT9=
EXTT10=
EXTT11=
EXTT12=
PLAYORDER=
